<?xml version="1.0" encoding="UTF-8"?>
<svg width="200px" height="200px" viewBox="0 0 200 200" version="1.1" xmlns="http://www.w3.org/2000/svg">
    <title>NeuraDeSci Logo</title>
    <g stroke="none" stroke-width="1" fill="none" fill-rule="evenodd">
        <g transform="translate(20, 20)">
            <!-- Brain outline with gradient -->
            <path d="M80,10 C120,10 150,40 150,80 C150,120 120,150 80,150 C40,150 10,120 10,80 C10,40 40,10 80,10 Z" 
                  stroke="#3a86ff" 
                  stroke-width="4" 
                  fill="url(#brainGradient)" />
            
            <!-- Neural connections -->
            <line x1="40" y1="50" x2="90" y2="70" stroke="#3a86ff" stroke-width="2" />
            <line x1="40" y1="110" x2="90" y2="90" stroke="#3a86ff" stroke-width="2" />
            <line x1="120" y1="50" x2="90" y2="70" stroke="#3a86ff" stroke-width="2" />
            <line x1="120" y1="110" x2="90" y2="90" stroke="#3a86ff" stroke-width="2" />
            <line x1="90" y1="70" x2="90" y2="90" stroke="#3a86ff" stroke-width="2" />
            <line x1="60" y1="40" x2="90" y2="70" stroke="#3a86ff" stroke-width="2" />
            <line x1="60" y1="120" x2="90" y2="90" stroke="#3a86ff" stroke-width="2" />
            <line x1="100" y1="40" x2="90" y2="70" stroke="#3a86ff" stroke-width="2" />
            <line x1="100" y1="120" x2="90" y2="90" stroke="#3a86ff" stroke-width="2" />
            
            <!-- Neural nodes -->
            <circle cx="40" cy="50" r="6" fill="#ffffff" stroke="#3a86ff" stroke-width="2" />
            <circle cx="40" cy="110" r="6" fill="#ffffff" stroke="#3a86ff" stroke-width="2" />
            <circle cx="120" cy="50" r="6" fill="#ffffff" stroke="#3a86ff" stroke-width="2" />
            <circle cx="120" cy="110" r="6" fill="#ffffff" stroke="#3a86ff" stroke-width="2" />
            <circle cx="90" cy="70" r="8" fill="#ffffff" stroke="#3a86ff" stroke-width="2" />
            <circle cx="90" cy="90" r="8" fill="#ffffff" stroke="#3a86ff" stroke-width="2" />
            <circle cx="60" cy="40" r="6" fill="#ffffff" stroke="#3a86ff" stroke-width="2" />
            <circle cx="60" cy="120" r="6" fill="#ffffff" stroke="#3a86ff" stroke-width="2" />
            <circle cx="100" cy="40" r="6" fill="#ffffff" stroke="#3a86ff" stroke-width="2" />
            <circle cx="100" cy="120" r="6" fill="#ffffff" stroke="#3a86ff" stroke-width="2" />
            
            <!-- Blockchain element - stylized blocks -->
            <rect x="65" y="65" width="10" height="10" fill="#ffffff" stroke="#3a86ff" stroke-width="2" />
            <rect x="75" y="75" width="10" height="10" fill="#ffffff" stroke="#3a86ff" stroke-width="2" />
            <rect x="85" y="85" width="10" height="10" fill="#ffffff" stroke="#3a86ff" stroke-width="2" />
        </g>
        
        <!-- Definitions -->
        <defs>
            <linearGradient id="brainGradient" x1="0%" y1="0%" x2="100%" y2="100%">
                <stop offset="0%" stop-color="#f5f7fa" />
                <stop offset="100%" stop-color="#c3cfe2" />
            </linearGradient>
        </defs>
    </g>
</svg> 